<?xml version="1.0" encoding="UTF-8"?>
<svg id="Ebene_1" data-name="Ebene 1" xmlns="http://www.w3.org/2000/svg" viewBox="0 0 766.18 52.06">
  <defs>
    <style>
      .cls-1 {
        fill: #69c0b3;
      }
    </style>
  </defs>
  <path d="m41.13,26.03c0,4.27-.69,7.95-2.08,11.03-1.39,3.09-3.31,5.64-5.77,7.66-2.46,2.02-5.34,3.51-8.65,4.49-3.31.97-6.87,1.46-10.66,1.46H0V1.39h13.97c3.8,0,7.35.48,10.66,1.43,3.31.95,6.2,2.44,8.65,4.45,2.45,2.02,4.38,4.58,5.77,7.69,1.39,3.11,2.08,6.8,2.08,11.07ZM1.53,2.78v46.49h12.06c3.63,0,7.03-.45,10.21-1.36s5.94-2.3,8.26-4.18c2.32-1.88,4.16-4.28,5.51-7.2,1.35-2.92,2.02-6.43,2.02-10.51s-.67-7.6-2.02-10.54c-1.35-2.95-3.18-5.36-5.51-7.24-2.32-1.88-5.08-3.26-8.26-4.14-3.18-.88-6.59-1.32-10.21-1.32H1.53Z"/>
  <path d="m53.59,50.67V1.39h28.74v1.39h-27.21v21.64h25.61v1.39h-25.61v23.45h28.33v1.39h-29.86Z"/>
  <path d="m122.63,50.67l-14.89-24.85h-11.55v24.85h-1.53V1.39h13.64c1.81,0,3.64.16,5.5.49,1.85.32,3.51.94,4.98,1.84s2.66,2.15,3.58,3.72c.93,1.58,1.39,3.62,1.39,6.12,0,2.32-.44,4.25-1.32,5.78-.88,1.53-2.02,2.77-3.41,3.72-1.39.95-2.94,1.64-4.63,2.05-1.69.42-3.35.63-4.98.63l14.96,24.92h-1.74Zm-.42-37.09c0-2.13-.42-3.91-1.25-5.32-.84-1.41-1.94-2.53-3.31-3.34-1.37-.81-2.95-1.38-4.73-1.71-1.79-.32-3.61-.49-5.46-.49h-11.27v21.78h12.04c4.55,0,8.01-.95,10.4-2.85,2.39-1.9,3.58-4.59,3.58-8.07Z"/>
  <path class="cls-1" d="m159.17,11.69c-.93-1.21-2.24-2.22-3.93-3.03-1.69-.81-3.4-1.22-5.12-1.22-1.02,0-2.04.13-3.06.38-1.02.26-1.95.65-2.78,1.18-.84.53-1.52,1.23-2.05,2.09-.53.86-.8,1.89-.8,3.1,0,1.11.23,2.06.7,2.85.46.79,1.1,1.46,1.91,2.02.81.56,1.8,1.04,2.96,1.46,1.16.42,2.44.84,3.83,1.25,1.58.51,3.21,1.09,4.91,1.74,1.69.65,3.25,1.51,4.66,2.58,1.42,1.07,2.58,2.41,3.48,4.04.9,1.62,1.36,3.64,1.36,6.05,0,2.64-.49,4.95-1.46,6.93-.97,1.97-2.27,3.61-3.9,4.91-1.62,1.3-3.53,2.27-5.71,2.92-2.18.65-4.48.97-6.89.97-3.2,0-6.33-.59-9.4-1.77-3.06-1.18-5.57-2.93-7.52-5.25l6.26-5.85c1.21,1.67,2.82,2.99,4.84,3.97,2.02.97,4,1.46,5.95,1.46,1.02,0,2.06-.13,3.13-.38,1.07-.25,2.03-.68,2.89-1.29.86-.6,1.55-1.36,2.09-2.26.53-.9.8-2.03.8-3.38s-.3-2.38-.9-3.24c-.6-.86-1.42-1.6-2.44-2.23-1.02-.63-2.23-1.17-3.62-1.64-1.39-.46-2.85-.95-4.38-1.46-1.49-.46-2.97-1.02-4.45-1.67-1.49-.65-2.82-1.51-4-2.57-1.18-1.07-2.15-2.38-2.89-3.93-.74-1.55-1.11-3.49-1.11-5.81,0-2.51.52-4.66,1.57-6.47,1.04-1.81,2.41-3.31,4.11-4.49,1.69-1.18,3.62-2.06,5.78-2.64,2.16-.58,4.35-.87,6.58-.87,2.51,0,5.05.44,7.62,1.32,2.58.88,4.81,2.2,6.72,3.97l-5.71,6.26Z"/>
  <path class="cls-1" d="m209.55,12.94c-1.3-1.76-2.99-3.05-5.08-3.86-2.09-.81-4.13-1.22-6.12-1.22-2.55,0-4.87.46-6.96,1.39-2.09.93-3.89,2.2-5.39,3.83-1.51,1.62-2.67,3.53-3.48,5.71-.81,2.18-1.22,4.55-1.22,7.1,0,2.69.39,5.15,1.18,7.38.79,2.23,1.91,4.14,3.38,5.74,1.46,1.6,3.21,2.84,5.25,3.72,2.04.88,4.34,1.32,6.89,1.32s4.99-.52,7.03-1.57c2.04-1.04,3.69-2.42,4.94-4.14l7.03,4.94c-2.18,2.74-4.85,4.86-8,6.37-3.16,1.51-6.84,2.26-11.07,2.26-3.85,0-7.39-.64-10.61-1.91-3.23-1.28-6-3.06-8.32-5.36-2.32-2.3-4.13-5.03-5.43-8.21-1.3-3.18-1.95-6.69-1.95-10.54s.68-7.5,2.05-10.68c1.37-3.18,3.25-5.88,5.64-8.11,2.39-2.23,5.21-3.94,8.46-5.15,3.25-1.21,6.77-1.81,10.58-1.81,1.58,0,3.22.15,4.94.45,1.72.3,3.36.77,4.94,1.39,1.58.63,3.06,1.4,4.45,2.33,1.39.93,2.57,2.04,3.55,3.34l-6.68,5.29Z"/>
  <path class="cls-1" d="m222.43,1.39h8.77v19.9h23.04V1.39h8.77v49.27h-8.77v-21.85h-23.04v21.85h-8.77V1.39Z"/>
  <path class="cls-1" d="m273.86,1.39h13.71l12.81,35.01h.21l12.67-35.01h13.78v49.27h-8.7V11.07h-.14l-14.96,39.6h-6.12l-14.75-39.6h-.14v39.6h-8.35V1.39Z"/>
  <path class="cls-1" d="m377.14,32.57c0,2.97-.51,5.65-1.53,8.04-1.02,2.39-2.41,4.42-4.18,6.09-1.76,1.67-3.85,2.96-6.26,3.86-2.41.91-5.03,1.36-7.86,1.36s-5.45-.45-7.86-1.36c-2.41-.9-4.51-2.19-6.3-3.86-1.79-1.67-3.18-3.7-4.18-6.09-1-2.39-1.5-5.07-1.5-8.04V1.39h8.77v30.83c0,1.44.19,2.87.56,4.28.37,1.42.98,2.68,1.84,3.79.86,1.11,1.99,2.02,3.41,2.71,1.41.7,3.17,1.04,5.25,1.04s3.84-.35,5.25-1.04c1.42-.7,2.55-1.6,3.41-2.71.86-1.11,1.47-2.38,1.84-3.79.37-1.42.56-2.84.56-4.28V1.39h8.77v31.18Z"/>
  <path class="cls-1" d="m423.14,12.94c-1.3-1.76-2.99-3.05-5.08-3.86-2.09-.81-4.13-1.22-6.12-1.22-2.55,0-4.87.46-6.96,1.39-2.09.93-3.89,2.2-5.39,3.83-1.51,1.62-2.67,3.53-3.48,5.71-.81,2.18-1.22,4.55-1.22,7.1,0,2.69.39,5.15,1.18,7.38s1.91,4.14,3.38,5.74c1.46,1.6,3.21,2.84,5.25,3.72,2.04.88,4.34,1.32,6.89,1.32s4.99-.52,7.03-1.57c2.04-1.04,3.69-2.42,4.94-4.14l7.03,4.94c-2.18,2.74-4.85,4.86-8,6.37-3.16,1.51-6.84,2.26-11.07,2.26-3.85,0-7.39-.64-10.61-1.91s-6-3.06-8.32-5.36c-2.32-2.3-4.13-5.03-5.43-8.21-1.3-3.18-1.95-6.69-1.95-10.54s.68-7.5,2.05-10.68c1.37-3.18,3.25-5.88,5.64-8.11,2.39-2.23,5.21-3.94,8.46-5.15,3.25-1.21,6.77-1.81,10.58-1.81,1.58,0,3.22.15,4.94.45,1.72.3,3.36.77,4.94,1.39,1.58.63,3.06,1.4,4.45,2.33,1.39.93,2.58,2.04,3.55,3.34l-6.68,5.29Z"/>
  <path class="cls-1" d="m436.02,1.39h8.77v21.3h.21l20.6-21.3h11.83l-23.04,22.76,24.57,26.52h-12.32l-21.64-24.71h-.21v24.71h-8.77V1.39Z"/>
  <path d="m532.68,50.67V3.13h-.28l-21.78,47.53h-1.25l-21.71-47.53h-.21v47.53h-1.53V1.39h2.71l21.44,47.05,21.44-47.05h2.71v49.27h-1.53Z"/>
  <path d="m585.02,50.67l-5.85-14.13h-28.6l-6.05,14.13h-1.67l21.37-49.27h1.95l20.53,49.27h-1.67Zm-19.9-48.3l-13.99,32.85h27.56l-13.57-32.85Z"/>
  <path d="m626.53,50.21c-3.18,1.23-6.42,1.84-9.71,1.84-3.71,0-7.1-.65-10.16-1.95-3.06-1.3-5.71-3.1-7.93-5.39-2.23-2.3-3.96-5.05-5.18-8.25-1.23-3.2-1.84-6.68-1.84-10.44s.61-7.24,1.84-10.44c1.23-3.2,2.96-5.95,5.18-8.25,2.23-2.3,4.88-4.09,7.97-5.39,3.08-1.3,6.46-1.95,10.13-1.95,3.06,0,6.04.52,8.94,1.57,2.9,1.04,5.37,2.63,7.41,4.77l-.97,1.11c-.97-1.02-2.08-1.91-3.31-2.68-1.23-.77-2.53-1.4-3.9-1.91-1.37-.51-2.75-.88-4.14-1.11-1.39-.23-2.74-.35-4.04-.35-3.53,0-6.74.64-9.64,1.91-2.9,1.28-5.38,3.03-7.45,5.25s-3.67,4.84-4.8,7.83c-1.14,2.99-1.71,6.21-1.71,9.64s.56,6.65,1.67,9.64c1.11,2.99,2.7,5.6,4.77,7.83,2.06,2.23,4.55,3.98,7.45,5.25,2.9,1.28,6.13,1.91,9.71,1.91,3.06,0,6.09-.59,9.08-1.77,2.99-1.18,5.46-2.96,7.41-5.32l1.11,1.04c-2.09,2.5-4.72,4.37-7.9,5.6Z"/>
  <path d="m679.11,50.67v-24.78h-33.13v24.78h-1.53V1.39h1.53v23.11h33.13V1.39h1.53v49.27h-1.53Z"/>
  <path d="m695.4,50.67V1.39h28.74v1.39h-27.21v21.64h25.61v1.39h-25.61v23.45h28.33v1.39h-29.86Z"/>
  <path d="m764.44,50.67l-14.89-24.85h-11.55v24.85h-1.53V1.39h13.64c1.81,0,3.64.16,5.5.49,1.86.32,3.51.94,4.98,1.84s2.66,2.15,3.58,3.72c.93,1.58,1.39,3.62,1.39,6.12,0,2.32-.44,4.25-1.32,5.78-.88,1.53-2.02,2.77-3.41,3.72-1.39.95-2.93,1.64-4.63,2.05-1.69.42-3.35.63-4.98.63l14.96,24.92h-1.74Zm-.42-37.09c0-2.13-.42-3.91-1.25-5.32-.83-1.41-1.94-2.53-3.31-3.34-1.37-.81-2.95-1.38-4.73-1.71-1.79-.32-3.61-.49-5.46-.49h-11.27v21.78h12.04c4.55,0,8.01-.95,10.41-2.85,2.39-1.9,3.58-4.59,3.58-8.07Z"/>
</svg>